<?xml version="1.0" standalone="no"?>
<!DOCTYPE svg PUBLIC "-//W3C//DTD SVG 20010904//EN"
 "http://www.w3.org/TR/2001/REC-SVG-20010904/DTD/svg10.dtd">
<svg version="1.0" xmlns="http://www.w3.org/2000/svg"
 width="700.000000pt" height="700.000000pt" viewBox="0 0 700.000000 700.000000"
 preserveAspectRatio="xMidYMid meet">
<metadata>
Created by potrace 1.14, written by Peter Selinger 2001-2017
</metadata>
<g transform="translate(0.000000,700.000000) scale(0.100000,-0.100000)"
fill="#000000" stroke="none">
<path d="M2590 5946 c-110 -46 -737 -299 -810 -328 -41 -17 -88 -36 -105 -43
-16 -7 -77 -32 -135 -55 -58 -23 -116 -46 -130 -52 -14 -6 -52 -49 -85 -96
-33 -47 -121 -172 -196 -276 -74 -105 -157 -222 -184 -261 -27 -38 -60 -86
-74 -106 -14 -20 -63 -89 -108 -152 l-81 -115 472 -629 c260 -345 784 -1044
1166 -1553 382 -509 697 -927 700 -930 3 -3 17 -21 30 -40 13 -19 27 -37 30
-40 3 -3 22 -27 41 -55 18 -27 37 -52 40 -55 3 -3 81 -105 172 -227 l166 -223
44 58 c24 31 182 241 352 467 169 226 318 424 331 440 12 17 65 86 116 155 51
69 96 130 101 135 10 12 849 1130 1045 1393 76 101 145 193 154 205 10 12 166
220 347 461 l330 439 -42 58 c-23 32 -75 105 -114 161 -110 156 -123 173 -218
308 -49 69 -136 193 -194 275 -58 83 -108 152 -111 155 -4 3 -9 12 -12 20 -3
9 -39 29 -79 44 -41 16 -92 37 -114 46 -22 10 -65 27 -95 39 -30 12 -65 26
-77 32 -13 5 -33 13 -45 18 -13 5 -61 25 -108 44 -47 19 -197 80 -335 135
-137 55 -290 116 -339 136 l-89 36 -851 -1 -851 -1 -55 -22z"/>
</g>
</svg>
